<svg width="23" height="23" viewBox="0 0 23 23" fill="none" xmlns="http://www.w3.org/2000/svg">
<path d="M7.66536 3.83268H6.89889C5.82545 3.83268 5.28833 3.83268 4.87834 4.04159C4.51769 4.22534 4.22469 4.51834 4.04094 4.87899C3.83203 5.28899 3.83203 5.8261 3.83203 6.89954V7.66602M7.66536 3.83268H15.332M7.66536 3.83268V1.91602M15.332 3.83268H16.0989C17.1723 3.83268 17.7083 3.83268 18.1183 4.04159C18.4789 4.22534 18.7729 4.51834 18.9567 4.87899C19.1654 5.28858 19.1654 5.82505 19.1654 6.89639V7.66602M15.332 3.83268V1.91602M3.83203 7.66602V16.0995C3.83203 17.173 3.83203 17.7094 4.04094 18.1194C4.22469 18.48 4.51769 18.7736 4.87834 18.9573C5.28793 19.166 9.94819 19.166 11.0195 19.166H16.0989C16.1417 19.166 19.1654 19.166 19.1654 16.291C19.1654 15.9126 19.1654 14.0082 19.1654 12.9368V7.66602M3.83203 7.66602H19.1654M11.4987 15.3327V15.3346M15.332 15.3327H15.3339L15.3339 15.3346L15.332 15.3346V15.3327ZM7.66536 15.3327H7.66728L7.66724 15.3346L7.66536 15.3346V15.3327ZM15.3339 11.4993V11.5013L15.332 11.5012V11.4993H15.3339ZM11.4987 11.4993H11.5006L11.5006 11.5013L11.4987 11.5012V11.4993ZM7.66536 11.4993H7.66728L7.66724 11.5013L7.66536 11.5012V11.4993Z" stroke="#030303" stroke-width="2" stroke-linecap="round" stroke-linejoin="round"/>
<path d="M7.66536 3.83268H6.89889C5.82545 3.83268 5.28833 3.83268 4.87834 4.04159C4.51769 4.22534 4.22469 4.51834 4.04094 4.87899C3.83203 5.28899 3.83203 5.8261 3.83203 6.89954V7.66602M7.66536 3.83268H15.332M7.66536 3.83268V1.91602M15.332 3.83268H16.0989C17.1723 3.83268 17.7083 3.83268 18.1183 4.04159C18.4789 4.22534 18.7729 4.51834 18.9567 4.87899C19.1654 5.28858 19.1654 5.82505 19.1654 6.89639V7.66602M15.332 3.83268V1.91602M3.83203 7.66602V16.0995C3.83203 17.173 3.83203 17.7094 4.04094 18.1194C4.22469 18.48 4.51769 18.7736 4.87834 18.9573C5.28793 19.166 9.94819 19.166 11.0195 19.166H16.0989C16.1417 19.166 19.1654 19.166 19.1654 16.291C19.1654 15.9126 19.1654 14.0082 19.1654 12.9368V7.66602M3.83203 7.66602H19.1654M11.4987 15.3327V15.3346M15.332 15.3327H15.3339L15.3339 15.3346L15.332 15.3346V15.3327ZM7.66536 15.3327H7.66728L7.66724 15.3346L7.66536 15.3346V15.3327ZM15.3339 11.4993V11.5013L15.332 11.5012V11.4993H15.3339ZM11.4987 11.4993H11.5006L11.5006 11.5013L11.4987 11.5012V11.4993ZM7.66536 11.4993H7.66728L7.66724 11.5013L7.66536 11.5012V11.4993Z" stroke="black" stroke-opacity="0.2" stroke-width="2" stroke-linecap="round" stroke-linejoin="round"/>
<path d="M7.66536 3.83268H6.89889C5.82545 3.83268 5.28833 3.83268 4.87834 4.04159C4.51769 4.22534 4.22469 4.51834 4.04094 4.87899C3.83203 5.28899 3.83203 5.8261 3.83203 6.89954V7.66602M7.66536 3.83268H15.332M7.66536 3.83268V1.91602M15.332 3.83268H16.0989C17.1723 3.83268 17.7083 3.83268 18.1183 4.04159C18.4789 4.22534 18.7729 4.51834 18.9567 4.87899C19.1654 5.28858 19.1654 5.82505 19.1654 6.89639V7.66602M15.332 3.83268V1.91602M3.83203 7.66602V16.0995C3.83203 17.173 3.83203 17.7094 4.04094 18.1194C4.22469 18.48 4.51769 18.7736 4.87834 18.9573C5.28793 19.166 9.94819 19.166 11.0195 19.166H16.0989C16.1417 19.166 19.1654 19.166 19.1654 16.291C19.1654 15.9126 19.1654 14.0082 19.1654 12.9368V7.66602M3.83203 7.66602H19.1654M11.4987 15.3327V15.3346M15.332 15.3327H15.3339L15.3339 15.3346L15.332 15.3346V15.3327ZM7.66536 15.3327H7.66728L7.66724 15.3346L7.66536 15.3346V15.3327ZM15.3339 11.4993V11.5013L15.332 11.5012V11.4993H15.3339ZM11.4987 11.4993H11.5006L11.5006 11.5013L11.4987 11.5012V11.4993ZM7.66536 11.4993H7.66728L7.66724 11.5013L7.66536 11.5012V11.4993Z" stroke="black" stroke-opacity="0.2" stroke-width="2" stroke-linecap="round" stroke-linejoin="round"/>
<path d="M7.66536 3.83268H6.89889C5.82545 3.83268 5.28833 3.83268 4.87834 4.04159C4.51769 4.22534 4.22469 4.51834 4.04094 4.87899C3.83203 5.28899 3.83203 5.8261 3.83203 6.89954V7.66602M7.66536 3.83268H15.332M7.66536 3.83268V1.91602M15.332 3.83268H16.0989C17.1723 3.83268 17.7083 3.83268 18.1183 4.04159C18.4789 4.22534 18.7729 4.51834 18.9567 4.87899C19.1654 5.28858 19.1654 5.82505 19.1654 6.89639V7.66602M15.332 3.83268V1.91602M3.83203 7.66602V16.0995C3.83203 17.173 3.83203 17.7094 4.04094 18.1194C4.22469 18.48 4.51769 18.7736 4.87834 18.9573C5.28793 19.166 9.94819 19.166 11.0195 19.166H16.0989C16.1417 19.166 19.1654 19.166 19.1654 16.291C19.1654 15.9126 19.1654 14.0082 19.1654 12.9368V7.66602M3.83203 7.66602H19.1654M11.4987 15.3327V15.3346M15.332 15.3327H15.3339L15.3339 15.3346L15.332 15.3346V15.3327ZM7.66536 15.3327H7.66728L7.66724 15.3346L7.66536 15.3346V15.3327ZM15.3339 11.4993V11.5013L15.332 11.5012V11.4993H15.3339ZM11.4987 11.4993H11.5006L11.5006 11.5013L11.4987 11.5012V11.4993ZM7.66536 11.4993H7.66728L7.66724 11.5013L7.66536 11.5012V11.4993Z" stroke="black" stroke-opacity="0.2" stroke-width="2" stroke-linecap="round" stroke-linejoin="round"/>
<path d="M7.66536 3.83268H6.89889C5.82545 3.83268 5.28833 3.83268 4.87834 4.04159C4.51769 4.22534 4.22469 4.51834 4.04094 4.87899C3.83203 5.28899 3.83203 5.8261 3.83203 6.89954V7.66602M7.66536 3.83268H15.332M7.66536 3.83268V1.91602M15.332 3.83268H16.0989C17.1723 3.83268 17.7083 3.83268 18.1183 4.04159C18.4789 4.22534 18.7729 4.51834 18.9567 4.87899C19.1654 5.28858 19.1654 5.82505 19.1654 6.89639V7.66602M15.332 3.83268V1.91602M3.83203 7.66602V16.0995C3.83203 17.173 3.83203 17.7094 4.04094 18.1194C4.22469 18.48 4.51769 18.7736 4.87834 18.9573C5.28793 19.166 9.94819 19.166 11.0195 19.166H16.0989C16.1417 19.166 19.1654 19.166 19.1654 16.291C19.1654 15.9126 19.1654 14.0082 19.1654 12.9368V7.66602M3.83203 7.66602H19.1654M11.4987 15.3327V15.3346M15.332 15.3327H15.3339L15.3339 15.3346L15.332 15.3346V15.3327ZM7.66536 15.3327H7.66728L7.66724 15.3346L7.66536 15.3346V15.3327ZM15.3339 11.4993V11.5013L15.332 11.5012V11.4993H15.3339ZM11.4987 11.4993H11.5006L11.5006 11.5013L11.4987 11.5012V11.4993ZM7.66536 11.4993H7.66728L7.66724 11.5013L7.66536 11.5012V11.4993Z" stroke="black" stroke-opacity="0.2" stroke-width="2" stroke-linecap="round" stroke-linejoin="round"/>
<rect x="11" y="11" width="10" height="10" rx="5" fill="white"/>
<path d="M16 13.0833V16H18.9167M16 21.25C13.1005 21.25 10.75 18.8995 10.75 16C10.75 13.1005 13.1005 10.75 16 10.75C18.8995 10.75 21.25 13.1005 21.25 16C21.25 18.8995 18.8995 21.25 16 21.25Z" stroke="#030303" stroke-width="2" stroke-linecap="round" stroke-linejoin="round"/>
<path d="M16 13.0833V16H18.9167M16 21.25C13.1005 21.25 10.75 18.8995 10.75 16C10.75 13.1005 13.1005 10.75 16 10.75C18.8995 10.75 21.25 13.1005 21.25 16C21.25 18.8995 18.8995 21.25 16 21.25Z" stroke="black" stroke-opacity="0.2" stroke-width="2" stroke-linecap="round" stroke-linejoin="round"/>
<path d="M16 13.0833V16H18.9167M16 21.25C13.1005 21.25 10.75 18.8995 10.75 16C10.75 13.1005 13.1005 10.75 16 10.75C18.8995 10.75 21.25 13.1005 21.25 16C21.25 18.8995 18.8995 21.25 16 21.25Z" stroke="black" stroke-opacity="0.2" stroke-width="2" stroke-linecap="round" stroke-linejoin="round"/>
<path d="M16 13.0833V16H18.9167M16 21.25C13.1005 21.25 10.75 18.8995 10.75 16C10.75 13.1005 13.1005 10.75 16 10.75C18.8995 10.75 21.25 13.1005 21.25 16C21.25 18.8995 18.8995 21.25 16 21.25Z" stroke="black" stroke-opacity="0.2" stroke-width="2" stroke-linecap="round" stroke-linejoin="round"/>
<path d="M16 13.0833V16H18.9167M16 21.25C13.1005 21.25 10.75 18.8995 10.75 16C10.75 13.1005 13.1005 10.75 16 10.75C18.8995 10.75 21.25 13.1005 21.25 16C21.25 18.8995 18.8995 21.25 16 21.25Z" stroke="black" stroke-opacity="0.2" stroke-width="2" stroke-linecap="round" stroke-linejoin="round"/>
</svg>
